<svg xmlns="http://www.w3.org/2000/svg" xmlns:xlink="http://www.w3.org/1999/xlink" viewBox="0 0 280 250" preserveAspectRatio="xMidYMid" style="display: block; shape-rendering: auto; background: rgb(253, 253, 253);" width="280" height="250"><style type="text/css">
  .ld-text text {
    text-anchor: middle;
    dominant-baseline: middle;
    font-size: 80px;
    opacity: 0;
    user-select: none;
    pointer-events: none;
  }
</style>
<g style="transform-origin:140px 125px;transform:scale(1)" class="ld-text">
<g transform="translate(140,125)">
  <g transform="scale(1.0000) translate(0,0)"><g class="path" style="opacity: 1; transform-origin: -97.48px -5.18px; transform: matrix3d(0.91, 0, 0, 0, 0, 0.91, 0, 0, 0, 0, 0.91, 0, 0, 0, 0, 1); animation: 1s linear -0.5775s infinite normal forwards running animate-nq4q5u6dq7r; transform-box: view-box;"><path d="M19.36 37.88Q18.32 39.24 16.52 40.36Q14.72 41.48 11.84 41.48Q8.96 41.48 6.96 39.64Q4.96 37.80 4.96 34.44L4.96 34.44Q4.96 33.80 5.12 32.36L5.12 32.36L10.32 3.56Q11.76-4.36 14.28-7.72Q16.80-11.08 20.96-11.08L20.96-11.08Q23.84-11.08 25.72-8.92Q27.60-6.76 27.60-2.36Q27.60 2.04 24.20 10.20Q20.80 18.36 20.80 22.12L20.80 22.12L19.36 22.12Q19.36 17.88 22.72 10Q26.08 2.12 26.08-2.60L26.08-2.60Q26.08-5.48 24.76-7.56Q23.44-9.64 21.52-9.64L21.52-9.64Q21.44-7.56 18.76 9.04Q16.08 25.64 13.44 39.88L13.44 39.88Q15.68 39.88 17.60 37.56Q19.52 35.24 20.32 32.92L20.32 32.92L21.20 30.52L22.64 31.16Q22.40 32.28 21.40 34.40Q20.40 36.52 19.36 37.88" style="fill: rgb(81, 202, 204);" transform="translate(-113.760,-20.380)"></path></g><g class="path" style="opacity: 1; transform-origin: -71.12px 5.18px; transform: matrix3d(0.91, 0, 0, 0, 0, 0.91, 0, 0, 0, 0, 0.91, 0, 0, 0, 0, 1); animation: 1s linear -0.495s infinite normal forwards running animate-nq4q5u6dq7r; transform-box: view-box;"><path d="M39.52 41.48Q33.36 41.48 30.16 38.40Q26.96 35.32 26.96 30.64Q26.96 25.96 27.80 22.64Q28.64 19.32 30.56 16.24Q32.48 13.16 36.36 11.40Q40.24 9.64 46.04 9.64Q51.84 9.64 55.08 12.72Q58.32 15.80 58.32 21.16L58.32 21.16Q58.32 30.28 53.48 35.88Q48.64 41.48 39.52 41.48L39.52 41.48 zM36 33.24L36 33.24Q36 39.64 39.72 39.64Q43.44 39.64 46.36 33.20Q49.28 26.76 49.28 17.88L49.28 17.88Q49.28 11.16 45.64 11.16Q42 11.16 39 17.28Q36 23.40 36 33.24" style="fill: rgb(157, 248, 113);" transform="translate(-113.760,-20.380)"></path></g><g class="path" style="opacity: 1; transform-origin: -34.24px 5.18px; transform: matrix3d(0.91, 0, 0, 0, 0, 0.91, 0, 0, 0, 0, 0.91, 0, 0, 0, 0, 1); animation: 1s linear -0.4125s infinite normal forwards running animate-nq4q5u6dq7r; transform-box: view-box;"><path d="M90.48 41.48L90.48 41.48Q83.44 41.48 82.80 35.32L82.80 35.32Q79.28 41.48 73.92 41.48Q68.56 41.48 65.40 38.24Q62.24 35 62.24 29.16L62.24 29.16Q62.24 20.04 66.72 14.84Q71.20 9.64 78.32 9.64L78.32 9.64Q84.16 9.64 86.08 15.16L86.08 15.16Q86.48 12.76 86.96 10.36L86.96 10.36Q92.88 10.36 95.76 9.88L95.76 9.88L96.80 9.64L91.28 39.88Q93.68 39.64 95.28 37.64L95.28 37.64L96.48 38.60Q94.08 41.48 90.48 41.48 zM71.28 33.24Q71.28 36.84 72.20 38.24Q73.12 39.64 75.04 39.64Q76.96 39.64 78.96 37.56L78.96 37.56Q81.60 34.84 83.20 30.68L83.20 30.68Q83.44 29.64 84.12 25.68Q84.80 21.72 85.28 19.16L85.28 19.16Q85.04 16.12 83.60 13.88Q82.16 11.64 80 11.64L80 11.64Q76.08 11.64 73.68 18.64Q71.28 25.64 71.28 33.24L71.28 33.24" style="fill: rgb(224, 255, 119);" transform="translate(-113.760,-20.380)"></path></g><g class="path" style="opacity: 1; transform-origin: 5.32px -5.18px; transform: matrix3d(0.91, 0, 0, 0, 0, 0.91, 0, 0, 0, 0, 0.91, 0, 0, 0, 0, 1); animation: 1s linear -0.33s infinite normal forwards running animate-nq4q5u6dq7r; transform-box: view-box;"><path d="M128.72 41.48L128.72 41.48Q121.68 41.48 121.04 35.48L121.04 35.48Q117.52 41.48 112.08 41.48Q106.64 41.48 103.76 38.40Q100.88 35.32 100.88 29.96L100.88 29.96Q100.88 20.52 105.36 15.08Q109.84 9.64 116.96 9.64L116.96 9.64Q121.04 9.64 123.28 12.12L123.28 12.12Q124.24 13.40 124.48 14.04L124.48 14.04L128.80-9.48Q126.40-9.24 124.80-7.24L124.80-7.24L123.60-8.20Q126-11.08 129.64-11.08Q133.28-11.08 135.28-9.24Q137.28-7.40 137.28-4.04L137.28-4.04Q137.28-3.40 137.12-1.96L137.12-1.96Q133.20 20.04 129.52 39.88L129.52 39.88Q131.92 39.64 133.52 37.64L133.52 37.64L134.72 38.60Q132.32 41.48 128.72 41.48 zM109.92 33.24Q109.92 36.92 110.68 38.28Q111.44 39.64 113.08 39.64Q114.72 39.64 116.24 38.52Q117.76 37.40 118.80 35.64L118.80 35.64Q120.72 32.68 121.52 30.60L121.52 30.60L123.84 17.96Q123.68 15.40 122.16 13.28Q120.64 11.16 116.96 11.16L116.96 11.16Q114.40 11.16 112.16 18.68Q109.92 26.20 109.92 33.24L109.92 33.24" style="fill: rgb(222, 157, 214);" transform="translate(-113.760,-20.380)"></path></g><g class="path" style="opacity: 1; transform-origin: 33.48px 5.18px; transform: matrix3d(0.91, 0, 0, 0, 0, 0.91, 0, 0, 0, 0, 0.91, 0, 0, 0, 0, 1); animation: 1s linear -0.2475s infinite normal forwards running animate-nq4q5u6dq7r; transform-box: view-box;"><path d="M153.92 38.60Q151.52 41.48 147.92 41.48Q144.32 41.48 142.28 39.64Q140.24 37.80 140.24 34.84L140.24 34.84Q140.24 33.80 141.52 26.12L141.52 26.12L144.16 11.80L140.80 11.80L140.96 10.36L144.40 10.36Q150.32 10.36 153.12 9.88L153.12 9.88L154.24 9.64L148.72 39.88Q151.12 39.64 152.72 37.64L152.72 37.64L153.92 38.60" style="fill: rgb(255, 112, 142);" transform="translate(-113.760,-20.380)"></path></g><g class="path" style="opacity: 1; transform-origin: 37.24px -22.54px; transform: matrix3d(0.91, 0, 0, 0, 0, 0.91, 0, 0, 0, 0, 0.91, 0, 0, 0, 0, 1); animation: 1s linear -0.165s infinite normal forwards running animate-nq4q5u6dq7r; transform-box: view-box;"><path d="M146.88 1.96Q145.20 0.28 145.20-2.12Q145.20-4.52 146.88-6.24Q148.56-7.96 150.96-7.96Q153.36-7.96 155.08-6.24Q156.80-4.52 156.80-2.12Q156.80 0.28 155.08 1.96Q153.36 3.64 150.96 3.64Q148.56 3.64 146.88 1.96" style="fill: rgb(81, 202, 204);" transform="translate(-113.760,-20.380)"></path></g><g class="path" style="opacity: 1; transform-origin: 62.92px 5.18px; transform: matrix3d(0.91, 0, 0, 0, 0, 0.91, 0, 0, 0, 0, 0.91, 0, 0, 0, 0, 1); animation: 1s linear -0.0825s infinite normal forwards running animate-nq4q5u6dq7r; transform-box: view-box;"><path d="M189.44 39.88L189.44 39.88Q191.36 39.88 193.44 37.64L193.44 37.64L194.64 38.60Q194.08 39.72 192.16 40.60Q190.24 41.48 187.92 41.48L187.92 41.48Q180.64 41.48 180.64 34.92L180.64 34.92Q180.64 32.12 182.08 24.92Q183.52 17.72 183.52 15.48L183.52 15.48Q183.52 12.04 180.24 12.04L180.24 12.04Q177.60 12.04 175.16 15.48Q172.72 18.92 171.12 24.92L171.12 24.92L168.40 39.88Q170.88 39.64 172.48 37.64L172.48 37.64L173.68 38.60Q171.28 41.48 167.68 41.48Q164.08 41.48 162.04 39.64Q160 37.80 160 34.84L160 34.84Q160 33.72 161.28 26.04L161.28 26.04L163.92 11.24Q161.52 11.48 159.92 13.48L159.92 13.48L158.72 12.52Q161.12 9.64 164.76 9.64Q168.40 9.64 170.40 11.48Q172.40 13.32 172.40 16.68L172.40 16.68L172.40 17.16Q175.68 9.64 182.64 9.64L182.64 9.64Q187.36 9.64 190 12.32Q192.64 15 192.64 19.72L192.64 19.72Q192.64 22.20 191.12 29.28Q189.60 36.36 189.44 39.88" style="fill: rgb(157, 248, 113);" transform="translate(-113.760,-20.380)"></path></g><g class="path" style="opacity: 1; transform-origin: 100.8px 12.18px; transform: matrix3d(0.91, 0, 0, 0, 0, 0.91, 0, 0, 0, 0, 0.91, 0, 0, 0, 0, 1); animation: 1s linear 0s infinite normal forwards running animate-nq4q5u6dq7r; transform-box: view-box;"><path d="M224.72 49.48L224.72 49.48Q227.60 49.48 229.68 47.24L229.68 47.24L230.80 48.20Q228.88 50.92 224.72 50.92L224.72 50.92Q222.96 50.92 221.12 50.52L221.12 50.52Q215.68 55.48 207.20 55.48L207.20 55.48Q202.16 55.48 199.40 53.76Q196.64 52.04 196.64 49.28Q196.64 46.52 198.36 44.88Q200.08 43.24 204.48 43.24Q208.88 43.24 216.08 46.84L216.08 46.84L218.56 33.56Q214.96 40.20 209.28 40.20L209.28 40.20Q198.40 40.20 198.40 29.48L198.40 29.48Q198.40 20.52 202.92 15.08Q207.44 9.64 214.48 9.64L214.48 9.64Q218.56 9.64 220.80 12.12L220.80 12.12Q221.44 12.84 222.08 14.28L222.08 14.28L222.80 10.36Q228.72 10.36 231.44 9.88L231.44 9.88L232.48 9.64L227.20 39.16Q226 45.40 222.40 49.24L222.40 49.24Q223.44 49.48 224.72 49.48 zM207.44 31.96Q207.44 35.64 208.16 36.88Q208.88 38.12 210.88 38.12Q212.88 38.12 214.96 35.96Q217.04 33.80 217.96 31.92Q218.88 30.04 219.52 28.28L219.52 28.28L221.20 19.08L221.20 18.52Q221.20 11.16 214.48 11.16L214.48 11.16Q211.92 11.16 209.68 18.12Q207.44 25.08 207.44 31.96L207.44 31.96 zM206.88 53.88L206.88 53.88Q213.28 53.88 215.52 48.36L215.52 48.36L214.40 47.80Q213.44 47.32 213.24 47.20Q213.04 47.08 212.16 46.68Q211.28 46.28 210.88 46.16Q210.48 46.04 209.64 45.72Q208.80 45.40 208.24 45.28Q207.68 45.16 206.96 45L206.96 45Q205.76 44.76 203.44 44.76Q201.12 44.76 199.72 45.88Q198.32 47 198.32 49.16Q198.32 51.32 200.64 52.60Q202.96 53.88 206.88 53.88" style="fill: rgb(224, 255, 119);" transform="translate(-113.760,-20.380)"></path></g></g><text dy="0.35em" fill="#d88c51" font-family="Sail" font-size="80">loading</text>
</g>
</g><style type="text/css">@keyframes animate-nq4q5u6dq7r { 0.00% {transform: translate(0.00px,0.00px) rotate(0.00deg) scale(0.91, 0.91) skew(0deg, 0.00deg) ;opacity: 1.00;}4.00% {transform: translate(0.00px,0.00px) rotate(0.00deg) scale(0.91, 0.91) ;}8.00% {animation-timing-function: cubic-bezier(0.69,0.60,0.35,0.27);transform: translate(0.00px,0.00px) rotate(0.00deg) scale(0.91, 0.91) ;}14.00% {transform: translate(0.00px,0.00px) rotate(0.00deg) scale(0.93, 0.93) ;}18.00% {transform: translate(0.00px,0.00px) rotate(0.00deg) scale(0.94, 0.94) ;}22.00% {animation-timing-function: cubic-bezier(0.67,0.66,0.34,0.33);transform: translate(0.00px,0.00px) rotate(0.00deg) scale(0.96, 0.96) ;}26.00% {transform: translate(0.00px,0.00px) rotate(0.00deg) scale(0.97, 0.97) ;}30.00% {transform: translate(0.00px,0.00px) rotate(0.00deg) scale(0.99, 0.99) ;}34.00% {animation-timing-function: cubic-bezier(0.65,0.71,0.32,0.38);transform: translate(0.00px,0.00px) rotate(0.00deg) scale(1.01, 1.01) ;}40.00% {animation-timing-function: cubic-bezier(0.64,0.74,0.31,0.41);transform: translate(0.00px,0.00px) rotate(0.00deg) scale(1.02, 1.02) ;}46.00% {animation-timing-function: cubic-bezier(0.60,0.91,0.23,0.63);transform: translate(0.00px,0.00px) rotate(0.00deg) scale(1.03, 1.03) ;}50.00% {transform: translate(0.00px,0.00px) rotate(0.00deg) scale(1.03, 1.03) ;}54.00% {transform: translate(0.00px,0.00px) rotate(0.00deg) scale(1.03, 1.03) ;}58.00% {animation-timing-function: cubic-bezier(0.69,0.60,0.35,0.27);transform: translate(0.00px,0.00px) rotate(0.00deg) scale(1.03, 1.03) ;}64.00% {transform: translate(0.00px,0.00px) rotate(0.00deg) scale(1.01, 1.01) ;}68.00% {transform: translate(0.00px,0.00px) rotate(0.00deg) scale(1.00, 1.00) ;}72.00% {animation-timing-function: cubic-bezier(0.67,0.66,0.34,0.33);transform: translate(0.00px,0.00px) rotate(0.00deg) scale(0.98, 0.98) ;}76.00% {animation-timing-function: cubic-bezier(0.66,0.68,0.33,0.35);transform: translate(0.00px,0.00px) rotate(0.00deg) scale(0.97, 0.97) ;}82.00% {animation-timing-function: cubic-bezier(0.65,0.71,0.32,0.38);transform: translate(0.00px,0.00px) rotate(0.00deg) scale(0.94, 0.94) ;}88.00% {animation-timing-function: cubic-bezier(0.65,0.73,0.31,0.40);transform: translate(0.00px,0.00px) rotate(0.00deg) scale(0.92, 0.92) ;}94.00% {animation-timing-function: cubic-bezier(0.63,0.80,0.28,0.48);transform: translate(0.00px,0.00px) rotate(0.00deg) scale(0.91, 0.91) ;}100.00% {animation-timing-function: cubic-bezier(0.63,0.80,0.28,0.48);transform: translate(0.00px,0.00px) rotate(0.00deg) scale(0.91, 0.91) ;} }</style><!-- [ldio] generated by https://loading.io --></svg>